<svg id="Grupo_1654" data-name="Grupo 1654" xmlns="http://www.w3.org/2000/svg" xmlns:xlink="http://www.w3.org/1999/xlink" width="102.626" height="32.966" viewBox="0 0 102.626 32.966">
  <defs>
    <clipPath id="clip-path">
      <rect id="Retângulo_309" data-name="Retângulo 309" width="102.625" height="32.966" fill="none"/>
    </clipPath>
  </defs>
  <g id="Grupo_1653" data-name="Grupo 1653">
    <g id="Grupo_1652" data-name="Grupo 1652" clip-path="url(#clip-path)">
      <path id="Caminho_292" data-name="Caminho 292" d="M449.362,8.447a.413.413,0,0,1-.566.143l-.872-.494a.412.412,0,0,1-.144-.565L450.8.2a.412.412,0,0,1,.565-.144L454.179,1.7a.413.413,0,0,1,.144.565Z" transform="translate(-357.309 0)" fill="#56b144" fill-rule="evenodd"/>
      <path id="Caminho_293" data-name="Caminho 293" d="M459.719,24.485a.412.412,0,0,1-.577-.088l-.612-.795a.413.413,0,0,1,.087-.577l5.631-5.578a.412.412,0,0,1,.576.087l1.956,2.607a.413.413,0,0,1-.086.577Z" transform="translate(-365.87 -13.861)" fill="#56b144" fill-rule="evenodd"/>
      <path id="Caminho_294" data-name="Caminho 294" d="M464.545,48.4a.413.413,0,0,1-.492-.315l-.236-.975a.412.412,0,0,1,.314-.491l7.412-2.81a.413.413,0,0,1,.491.314l.728,3.177a.413.413,0,0,1-.314.492Z" transform="translate(-370.146 -34.954)" fill="#56b144" fill-rule="evenodd"/>
      <path id="Caminho_295" data-name="Caminho 295" d="M228.775,138.677a1.028,1.028,0,0,1-.279-.77v-3.446h.749v3.392q0,.48.45.479a.6.6,0,0,0,.27-.06l.036.6a1.28,1.28,0,0,1-.449.078,1.062,1.062,0,0,1-.776-.273" transform="translate(-182.354 -107.308)" fill="#fff"/>
      <path id="Caminho_296" data-name="Caminho 296" d="M239.519,142.751l.4.462a1.3,1.3,0,0,1-.539.389,2.159,2.159,0,0,1-1.672-.078,1.511,1.511,0,0,1-.62-.584,1.65,1.65,0,0,1-.219-.848,1.673,1.673,0,0,1,.213-.842,1.515,1.515,0,0,1,.587-.584,1.706,1.706,0,0,1,.848-.21,1.725,1.725,0,0,1,.818.195,1.467,1.467,0,0,1,.584.557,1.627,1.627,0,0,1,.216.848l-2.451.479a.836.836,0,0,0,.366.419,1.2,1.2,0,0,0,.605.144,1.179,1.179,0,0,0,.869-.348m-1.675-1.426a1.013,1.013,0,0,0-.255.725v.006l1.81-.348a.853.853,0,0,0-.315-.473.918.918,0,0,0-.572-.18.876.876,0,0,0-.668.27" transform="translate(-189.032 -112.092)" fill="#fff"/>
      <path id="Caminho_297" data-name="Caminho 297" d="M256.23,134.341a.442.442,0,0,1,0-.641.482.482,0,0,1,.342-.129.494.494,0,0,1,.341.123.4.4,0,0,1,.138.309.452.452,0,0,1-.135.332.467.467,0,0,1-.345.135.482.482,0,0,1-.342-.129m-.036.656h.749v3.2h-.749Z" transform="translate(-204.377 -106.598)" fill="#fff"/>
      <path id="Caminho_298" data-name="Caminho 298" d="M267.259,140.492v3.2h-.713v-.414a1.157,1.157,0,0,1-.458.342,1.549,1.549,0,0,1-.6.114,1.7,1.7,0,0,1-.836-.2,1.449,1.449,0,0,1-.575-.575,1.9,1.9,0,0,1,0-1.723,1.456,1.456,0,0,1,.575-.572,1.7,1.7,0,0,1,.836-.2,1.479,1.479,0,0,1,.572.108,1.255,1.255,0,0,1,.453.317v-.39Zm-1.007,2.325a1.109,1.109,0,0,0,0-1.45.916.916,0,0,0-.683-.276.905.905,0,0,0-.68.276,1.119,1.119,0,0,0,0,1.45.905.905,0,0,0,.68.276.916.916,0,0,0,.683-.276" transform="translate(-210.582 -112.092)" fill="#fff"/>
      <path id="Caminho_299" data-name="Caminho 299" d="M284.429,152.616a.5.5,0,1,1,.348.141.478.478,0,0,1-.348-.141" transform="translate(-226.876 -121.115)" fill="#fff"/>
      <path id="Caminho_300" data-name="Caminho 300" d="M292,143.524a1.527,1.527,0,0,1-.608-.584,1.747,1.747,0,0,1,0-1.693,1.536,1.536,0,0,1,.608-.581,1.943,1.943,0,0,1,1.756,0,1.534,1.534,0,0,1,.608.581,1.747,1.747,0,0,1,0,1.693,1.525,1.525,0,0,1-.608.584,1.942,1.942,0,0,1-1.756,0m1.558-.707a1.109,1.109,0,0,0,0-1.45.916.916,0,0,0-.683-.276.905.905,0,0,0-.68.276,1.119,1.119,0,0,0,0,1.45.905.905,0,0,0,.68.276.916.916,0,0,0,.683-.276" transform="translate(-232.37 -112.092)" fill="#fff"/>
      <path id="Caminho_301" data-name="Caminho 301" d="M314.619,140.634v3.2h-.713v-.408a1.193,1.193,0,0,1-.45.333,1.448,1.448,0,0,1-.581.117,1.391,1.391,0,0,1-1.01-.357,1.407,1.407,0,0,1-.369-1.058v-1.828h.749v1.726a.927.927,0,0,0,.195.644.713.713,0,0,0,.554.213.84.84,0,0,0,.638-.249,1,1,0,0,0,.237-.716v-1.618Z" transform="translate(-248.593 -112.234)" fill="#fff"/>
      <path id="Caminho_302" data-name="Caminho 302" d="M331.358,143.524a1.538,1.538,0,0,1-.617-.584,1.726,1.726,0,0,1,0-1.693,1.551,1.551,0,0,1,.614-.581,1.871,1.871,0,0,1,.9-.21,1.727,1.727,0,0,1,.83.192,1.245,1.245,0,0,1,.536.551l-.575.335a.914.914,0,0,0-.345-.333,1.007,1.007,0,0,0-1.148.162,1.1,1.1,0,0,0,0,1.456,1.01,1.01,0,0,0,1.151.162.913.913,0,0,0,.345-.333l.575.335a1.3,1.3,0,0,1-.542.555,1.692,1.692,0,0,1-.824.195,1.872,1.872,0,0,1-.893-.21m.03,1.408.138-.354a.876.876,0,0,0,.407.1q.318,0,.318-.216a.167.167,0,0,0-.078-.144.429.429,0,0,0-.24-.054h-.186l.162-.611h.408l-.084.336a.627.627,0,0,1,.389.165.465.465,0,0,1,.132.339.483.483,0,0,1-.222.413,1.014,1.014,0,0,1-.593.156,1.124,1.124,0,0,1-.551-.126" transform="translate(-263.774 -112.092)" fill="#fff"/>
      <path id="Caminho_303" data-name="Caminho 303" d="M350.915,140.492v3.2H350.2v-.414a1.157,1.157,0,0,1-.458.342,1.549,1.549,0,0,1-.6.114,1.7,1.7,0,0,1-.836-.2,1.449,1.449,0,0,1-.575-.575,1.9,1.9,0,0,1,0-1.723,1.456,1.456,0,0,1,.575-.572,1.7,1.7,0,0,1,.836-.2,1.478,1.478,0,0,1,.572.108,1.255,1.255,0,0,1,.453.317v-.39Zm-1.007,2.325a1.109,1.109,0,0,0,0-1.45.916.916,0,0,0-.683-.276.905.905,0,0,0-.68.276,1.119,1.119,0,0,0,0,1.45.905.905,0,0,0,.68.276.916.916,0,0,0,.683-.276" transform="translate(-277.344 -112.092)" fill="#fff"/>
      <path id="Caminho_304" data-name="Caminho 304" d="M368.084,152.616a.5.5,0,1,1,.348.141.478.478,0,0,1-.348-.141" transform="translate(-293.638 -121.115)" fill="#fff"/>
      <path id="Caminho_305" data-name="Caminho 305" d="M376.383,140.634l-1.372,3.2h-.773l-1.372-3.2h.779l.995,2.373,1.025-2.373Z" transform="translate(-297.569 -112.234)" fill="#fff"/>
      <path id="Caminho_306" data-name="Caminho 306" d="M393.5,142.751l.4.462a1.3,1.3,0,0,1-.539.389,2.159,2.159,0,0,1-1.672-.078,1.512,1.512,0,0,1-.62-.584,1.65,1.65,0,0,1-.219-.848,1.673,1.673,0,0,1,.213-.842,1.515,1.515,0,0,1,.587-.584,1.706,1.706,0,0,1,.848-.21,1.725,1.725,0,0,1,.818.195,1.467,1.467,0,0,1,.584.557,1.628,1.628,0,0,1,.216.848l-2.451.479a.835.835,0,0,0,.366.419,1.2,1.2,0,0,0,.605.144,1.179,1.179,0,0,0,.869-.348m-1.675-1.426a1.013,1.013,0,0,0-.255.725v.006l1.81-.348a.853.853,0,0,0-.315-.473.918.918,0,0,0-.572-.18.876.876,0,0,0-.668.27" transform="translate(-311.92 -112.092)" fill="#fff"/>
      <path id="Caminho_307" data-name="Caminho 307" d="M405.388,139.216l.216-.557a.711.711,0,0,0,.437.126.4.4,0,0,0,.321-.129.57.57,0,0,0,.111-.381V135h.749v3.26a1.161,1.161,0,0,1-.294.839,1.085,1.085,0,0,1-.821.306,1.18,1.18,0,0,1-.719-.186m1.115-4.875a.442.442,0,0,1,0-.641.482.482,0,0,1,.341-.129.5.5,0,0,1,.342.123.4.4,0,0,1,.138.309.452.452,0,0,1-.135.333.466.466,0,0,1-.344.135.481.481,0,0,1-.341-.129" transform="translate(-323.524 -106.598)" fill="#fff"/>
      <path id="Caminho_308" data-name="Caminho 308" d="M421.422,140.492v3.2h-.713v-.414a1.157,1.157,0,0,1-.458.342,1.549,1.549,0,0,1-.6.114,1.7,1.7,0,0,1-.836-.2,1.449,1.449,0,0,1-.575-.575,1.9,1.9,0,0,1,0-1.723,1.456,1.456,0,0,1,.575-.572,1.7,1.7,0,0,1,.836-.2,1.479,1.479,0,0,1,.572.108,1.255,1.255,0,0,1,.453.317v-.39Zm-1.007,2.325a1.109,1.109,0,0,0,0-1.45.915.915,0,0,0-.683-.276.905.905,0,0,0-.68.276,1.119,1.119,0,0,0,0,1.45.905.905,0,0,0,.68.276.915.915,0,0,0,.683-.276" transform="translate(-333.613 -112.092)" fill="#fff"/>
      <g id="Grupo_1655" data-name="Grupo 1655">
        <path id="Caminho_287" data-name="Caminho 287" d="M62.28,50.363a4.36,4.36,0,0,0,1.583,2.592,4.56,4.56,0,0,0,2.88.943,5.221,5.221,0,0,0,3.668-1.414l1.8,2.607a8.017,8.017,0,0,1-2.541,1.576,8.589,8.589,0,0,1-3.145.56,7.811,7.811,0,0,1-4.073-1.083,7.723,7.723,0,0,1-2.85-2.939,8.2,8.2,0,0,1-1.031-4.051,8.66,8.66,0,0,1,.972-4.08,7.5,7.5,0,0,1,2.7-2.938,7.167,7.167,0,0,1,3.881-1.083,7.874,7.874,0,0,1,4.095,1.024,6.682,6.682,0,0,1,2.622,2.835,9.2,9.2,0,0,1,.9,4.139,9.07,9.07,0,0,1-.088,1.311Zm1.458-5.207a4.169,4.169,0,0,0-1.429,2.35h7.807a4.13,4.13,0,0,0-1.333-2.364,3.78,3.78,0,0,0-2.511-.833,3.935,3.935,0,0,0-2.534.847" transform="translate(-46.741 -32.763)" fill="#fff"/>
        <path id="Caminho_288" data-name="Caminho 288" d="M144.307,55.4a8.031,8.031,0,0,1-2.946-2.932,7.884,7.884,0,0,1-1.083-4.058,8.16,8.16,0,1,1,16.321,0,7.99,7.99,0,0,1-4.043,7,8.2,8.2,0,0,1-4.147,1.075,8.018,8.018,0,0,1-4.1-1.083m6.363-3.049a4.354,4.354,0,0,0,1.6-1.643,4.862,4.862,0,0,0,0-4.64,4.388,4.388,0,0,0-1.606-1.649,4.408,4.408,0,0,0-4.456,0,4.4,4.4,0,0,0-1.6,1.649,4.876,4.876,0,0,0,0,4.647,4.366,4.366,0,0,0,1.6,1.635,4.473,4.473,0,0,0,4.463,0" transform="translate(-111.95 -32.143)" fill="#fff"/>
        <path id="Caminho_289" data-name="Caminho 289" d="M239,42.587h3.756V58.024h-3.226l-.25-2a6.2,6.2,0,0,1-2.268,1.694,6.8,6.8,0,0,1-2.858.648,6.4,6.4,0,0,1-3.233-.788,5.3,5.3,0,0,1-2.128-2.283,7.874,7.874,0,0,1-.751-3.572V42.587h3.771v8.47a4.112,4.112,0,0,0,.891,2.828,3.149,3.149,0,0,0,2.482,1,3.808,3.808,0,0,0,1.923-.5,3.746,3.746,0,0,0,1.385-1.356A3.617,3.617,0,0,0,239,51.145Z" transform="translate(-181.987 -33.987)" fill="#fff"/>
        <path id="Caminho_290" data-name="Caminho 290" d="M317.128,57.334H313.46L307.2,41.883h4.124L315.3,53.077l3.977-11.195h4.139Z" transform="translate(-245.164 -33.425)" fill="#fff"/>
        <path id="Caminho_291" data-name="Caminho 291" d="M389.133,51.3a4.361,4.361,0,0,0,2.478,1.757,4.56,4.56,0,0,0,3.018-.271,5.22,5.22,0,0,0,2.812-2.747l2.681,1.686a8.02,8.02,0,0,1-1.712,2.452,8.591,8.591,0,0,1-2.668,1.756,7.81,7.81,0,0,1-4.169.613,7.725,7.725,0,0,1-3.779-1.574,8.2,8.2,0,0,1-2.547-3.315,8.657,8.657,0,0,1-.717-4.132,7.5,7.5,0,0,1,1.323-3.767,7.168,7.168,0,0,1,3.139-2.527,7.873,7.873,0,0,1,4.166-.676,6.682,6.682,0,0,1,3.528,1.57,9.2,9.2,0,0,1,2.46,3.448,9.022,9.022,0,0,1,.436,1.24Zm-.716-5.36a4.166,4.166,0,0,0-.385,2.723l7.173-3.082a4.132,4.132,0,0,0-2.158-1.646,3.781,3.781,0,0,0-2.636.227,3.934,3.934,0,0,0-1.993,1.778" transform="translate(-306.857 -32.322)" fill="#fff"/>
        <path id="Caminho_309" data-name="Caminho 309" d="M0,16.383v20.7H11.447V33.264H3.992V16.383Z" transform="translate(0 -13.075)" fill="#fff"/>
      </g>
    </g>
  </g>
</svg>
