<svg xmlns="http://www.w3.org/2000/svg" width="27.416" height="24.989" viewBox="0 0 27.416 24.989">
  <g id="anchor-seeklogo.com" transform="translate(0 0)">
    <path id="Caminho_30" data-name="Caminho 30" d="M26.518,8.125a3.644,3.644,0,0,0-2.342-.191,3.747,3.747,0,0,0-2.426,2.343c-1.073,2.693-.144,7.389-.507,7.389s-1.507-4.328-3.036-8.835S15.352-.356,12.964.021c-2.118.334-1.461,5.671-.632,10.67.751,4.531,1.62,8.773,1.124,8.773-.887,0-3.8-12.524-6.784-12.048s.86,14.276.052,14.3c-.664.021-2.291-8.4-4.707-8.014-1.831.293-.2,6.846-.124,8.673.018.458.161,1.318-.527,1.318H0V24.97H2.236a1.032,1.032,0,0,0,1.007-.648c.621-1.529-1.01-8.026-.628-8.073.262-.032.828,1.945,1.617,4.181s1.58,4.554,3.079,4.554c3.233,0-.065-12.675.576-12.675.339,0,1.263,2.575,2.28,5.4,1.243,3.452,2.759,7.28,4.589,7.28,2.184,0,1.472-4.945.8-9.682-.586-4.1-1.272-7.953-.906-7.953.825,0,3.938,17.629,7.677,17.629,1.873,0,1.895-3.686,1.895-7.659,0-2.791-.233-5.334,1.52-5.946a2.194,2.194,0,0,1,1.677.225l-.9-3.477Z" transform="translate(0 0)" fill="#fff"/>
  </g>
</svg>
