<svg id="android_2_" data-name="android (2)" xmlns="http://www.w3.org/2000/svg" width="24.162" height="29" viewBox="0 0 24.162 29">
  <g id="Grupo_4" data-name="Grupo 4" transform="translate(0 0)">
    <path id="Caminho_3" data-name="Caminho 3" d="M44.539,170.787a1.812,1.812,0,0,0-1.812,1.812v8.456a1.812,1.812,0,0,0,3.625,0V172.6A1.812,1.812,0,0,0,44.539,170.787Z" transform="translate(-42.727 -161.115)" fill="#fff"/>
    <path id="Caminho_4" data-name="Caminho 4" d="M407.205,170.787a1.812,1.812,0,0,0-1.812,1.812v8.456a1.812,1.812,0,0,0,3.625,0V172.6A1.812,1.812,0,0,0,407.205,170.787Z" transform="translate(-384.855 -161.115)" fill="#fff"/>
    <path id="Caminho_5" data-name="Caminho 5" d="M141.953,170.787H128.664a.6.6,0,0,0-.6.6v9.664a3.02,3.02,0,0,0,2.421,2.959V188.3a1.812,1.812,0,0,0,3.624,0v-4.229h2.421V188.3a1.812,1.812,0,0,0,3.624,0v-4.288a3.02,3.02,0,0,0,2.421-2.959v-9.664a.6.6,0,0,0-.621-.6Z" transform="translate(-123.227 -161.115)" fill="#fff"/>
    <path id="Caminho_6" data-name="Caminho 6" d="M139.7,2.509l1.472-1.471a.6.6,0,1,0-.84-.869l-.015.015L138.6,1.9a8.267,8.267,0,0,0-6.588,0L130.3.184a.6.6,0,0,0-.854.854l1.471,1.472a6.372,6.372,0,0,0-2.857,5.353.6.6,0,0,0,.6.6h13.29a.6.6,0,0,0,.6-.6A6.372,6.372,0,0,0,139.7,2.509Z" transform="translate(-123.227 0)" fill="#fff"/>
  </g>
  <g id="Grupo_5" data-name="Grupo 5" transform="translate(8.456 4.839)">
    <ellipse id="Elipse_2" data-name="Elipse 2" cx="0.604" cy="0.604" rx="0.604" ry="0.604" transform="translate(0 0)" fill="#fff"/>
    <ellipse id="Elipse_3" data-name="Elipse 3" cx="0.604" cy="0.604" rx="0.604" ry="0.604" transform="translate(6.041 0)" fill="#fff"/>
  </g>
</svg>
