<svg xmlns="http://www.w3.org/2000/svg" width="23.523" height="28.099" viewBox="0 0 23.523 28.099">
  <path id="apple" d="M23.522,20.516a16.315,16.315,0,0,1-2.077,4.222q-2.178,3.309-4.34,3.309a7.8,7.8,0,0,1-2.364-.54,7.469,7.469,0,0,0-2.55-.54,6.5,6.5,0,0,0-2.4.557,6.1,6.1,0,0,1-2.229.574Q5,28.1,2.482,23.725A17.318,17.318,0,0,1,0,15.231,10.016,10.016,0,0,1,1.908,8.916,5.86,5.86,0,0,1,6.7,6.484a11.232,11.232,0,0,1,2.989.507,10.874,10.874,0,0,0,2.331.507,8.446,8.446,0,0,0,2.415-.574,9.535,9.535,0,0,1,2.921-.574,6.173,6.173,0,0,1,3.6,1.1,8.72,8.72,0,0,1,1.756,1.688,10.944,10.944,0,0,0-1.925,1.993,6.014,6.014,0,0,0-1.1,3.5,6.43,6.43,0,0,0,1.165,3.766,5.135,5.135,0,0,0,2.668,2.128ZM17.172.709a6.439,6.439,0,0,1-.489,2.3,6.928,6.928,0,0,1-1.57,2.331,4.788,4.788,0,0,1-1.824,1.216,9.433,9.433,0,0,1-1.756.287A7.7,7.7,0,0,1,12.85,2.5,6.727,6.727,0,0,1,17.072,0a1.565,1.565,0,0,1,.042.186,1.565,1.565,0,0,0,.042.186q0,.068.009.169t.009.169Z" fill="#fff"/>
</svg>
