<svg xmlns="http://www.w3.org/2000/svg" width="34.982" height="24.988" viewBox="0 0 34.982 24.988">
  <path id="Subtração_1" data-name="Subtração 1" d="M20.822,24.988H4.167A4.171,4.171,0,0,1,0,20.822V4.167A4.171,4.171,0,0,1,4.167,0H20.822a4.171,4.171,0,0,1,4.167,4.167V5.541L31.9,1.529a2.06,2.06,0,0,1,1.031-.28,2.037,2.037,0,0,1,2.05,2.019V21.719A2.048,2.048,0,0,1,31.9,23.46l-6.914-4.012v1.373A4.171,4.171,0,0,1,20.822,24.988ZM19.5,4A2.5,2.5,0,1,0,22,6.5,2.5,2.5,0,0,0,19.5,4Z" fill="#fff"/>
</svg>
