<svg xmlns="http://www.w3.org/2000/svg" width="24.988" height="24.987" viewBox="0 0 24.988 24.987">
  <path id="instagram" d="M15.493,3c-3.393,0-3.818.015-5.151.075a9.2,9.2,0,0,0-3.033.581A6.385,6.385,0,0,0,3.655,7.31a9.212,9.212,0,0,0-.581,3.033C3.014,11.675,3,12.1,3,15.493s.014,3.818.075,5.151a9.2,9.2,0,0,0,.581,3.033,6.383,6.383,0,0,0,3.655,3.655,9.212,9.212,0,0,0,3.033.581c1.333.06,1.758.075,5.151.075s3.818-.015,5.151-.075a9.2,9.2,0,0,0,3.033-.581,6.383,6.383,0,0,0,3.655-3.655,9.212,9.212,0,0,0,.581-3.033c.06-1.333.075-1.758.075-5.151s-.015-3.818-.075-5.151a9.2,9.2,0,0,0-.581-3.033,6.383,6.383,0,0,0-3.655-3.655,9.212,9.212,0,0,0-3.033-.581C19.311,3.015,18.886,3,15.493,3m0,2.251c3.336,0,3.73.012,5.047.072a6.941,6.941,0,0,1,2.321.43,4.136,4.136,0,0,1,2.371,2.371,6.933,6.933,0,0,1,.43,2.32c.06,1.318.072,1.712.072,5.049s-.012,3.73-.072,5.047a6.985,6.985,0,0,1-.43,2.321,4.136,4.136,0,0,1-2.371,2.371,6.933,6.933,0,0,1-2.32.43c-1.317.06-1.712.072-5.049.072s-3.732-.012-5.047-.072a6.985,6.985,0,0,1-2.321-.43,4.136,4.136,0,0,1-2.371-2.371,6.89,6.89,0,0,1-.43-2.32c-.06-1.318-.072-1.712-.072-5.049s.012-3.73.072-5.047a6.941,6.941,0,0,1,.43-2.321A4.136,4.136,0,0,1,8.125,5.754a6.89,6.89,0,0,1,2.32-.43c1.318-.06,1.712-.072,5.049-.072m0,14.406a4.164,4.164,0,1,1,4.164-4.164,4.164,4.164,0,0,1-4.164,4.164m0-10.579a6.415,6.415,0,1,0,6.415,6.415,6.415,6.415,0,0,0-6.415-6.415m8.168-.253a1.5,1.5,0,1,1-1.5-1.5,1.5,1.5,0,0,1,1.5,1.5" transform="translate(-3 -3)" fill="#fff" fill-rule="evenodd"/>
</svg>
