<svg xmlns="http://www.w3.org/2000/svg" width="24.987" height="24.987" viewBox="0 0 24.987 24.987">
  <path id="linkedin-rect" d="M4.9.009a4.911,4.911,0,0,0-4.9,4.9V20.1A4.911,4.911,0,0,0,4.9,25H20.1a4.91,4.91,0,0,0,4.9-4.9V4.906a4.911,4.911,0,0,0-4.9-4.9ZM6.135,4.132A1.968,1.968,0,1,1,6.11,8.055H6.086a1.967,1.967,0,1,1,.049-3.923ZM17.261,9.34c2.483,0,4.344,1.623,4.344,5.111v6.511H17.832V14.887c0-1.526-.546-2.568-1.912-2.568a2.067,2.067,0,0,0-1.937,1.38,2.577,2.577,0,0,0-.124.921v6.341H10.085s.049-10.29,0-11.355h3.774v1.608a3.746,3.746,0,0,1,3.4-1.874ZM4.223,9.607H8V20.961H4.223V9.607Z" transform="translate(-0.007 -0.009)" fill="#fff"/>
</svg>
