<svg xmlns="http://www.w3.org/2000/svg" width="24.989" height="24.989" viewBox="0 0 24.989 24.989">
  <path id="spotify" d="M18.335,17.6a.942.942,0,0,0-.488-.829A13.935,13.935,0,0,0,10.574,14.9a21.737,21.737,0,0,0-4.669.553.783.783,0,0,0-.683.846.8.8,0,0,0,.219.562.75.75,0,0,0,.578.235,4.755,4.755,0,0,0,.6-.13,19.833,19.833,0,0,1,3.953-.439A12.274,12.274,0,0,1,17.033,18.2a1.113,1.113,0,0,0,.537.179.763.763,0,0,0,.764-.781ZM19.9,14.1a1.092,1.092,0,0,0-.569-.993,17.1,17.1,0,0,0-8.915-2.294,18.211,18.211,0,0,0-4.93.683A.975.975,0,0,0,4.7,12.542a.974.974,0,0,0,.977.977,3.536,3.536,0,0,0,.6-.13,15.576,15.576,0,0,1,4.084-.537A15.269,15.269,0,0,1,18.3,14.87a1.426,1.426,0,0,0,.618.212A.971.971,0,0,0,19.9,14.1Zm1.757-4.035A1.229,1.229,0,0,0,21,8.931a16.8,16.8,0,0,0-4.767-1.8,25.357,25.357,0,0,0-5.579-.609,21.015,21.015,0,0,0-5.922.765,1.289,1.289,0,0,0-.626.415,1.191,1.191,0,0,0-.253.789,1.164,1.164,0,0,0,.333.846,1.122,1.122,0,0,0,.838.342,2.968,2.968,0,0,0,.651-.13,18.7,18.7,0,0,1,4.994-.6,22.774,22.774,0,0,1,5.035.553,14.234,14.234,0,0,1,4.124,1.546,1.317,1.317,0,0,0,.651.2,1.153,1.153,0,0,0,.822-.333,1.106,1.106,0,0,0,.349-.838Zm3.335,2.424a12.223,12.223,0,0,1-1.676,6.271,12.442,12.442,0,0,1-4.547,4.548,12.214,12.214,0,0,1-6.271,1.676,12.232,12.232,0,0,1-6.271-1.676,12.43,12.43,0,0,1-4.547-4.547A12.225,12.225,0,0,1,0,12.494,12.226,12.226,0,0,1,1.676,6.223,12.43,12.43,0,0,1,6.223,1.676,12.232,12.232,0,0,1,12.494,0a12.214,12.214,0,0,1,6.271,1.676,12.444,12.444,0,0,1,4.547,4.547,12.221,12.221,0,0,1,1.676,6.271Z" fill="#fff"/>
</svg>
