<svg xmlns="http://www.w3.org/2000/svg" width="24.987" height="24.987" viewBox="0 0 24.987 24.987">
  <path id="telegram" d="M16.579,18.225l2.05-9.663a.92.92,0,0,0-.146-.879.635.635,0,0,0-.718-.1L5.717,12.229a1.222,1.222,0,0,0-.551.348.3.3,0,0,0-.035.369.762.762,0,0,0,.446.272l3.082.962,7.153-4.5q.293-.2.446-.084.1.069-.056.209L10.417,15.03l-.223,3.179a.9.9,0,0,0,.627-.307l1.506-1.45,3.123,2.3q.893.5,1.129-.53Zm8.408-5.731A12.216,12.216,0,0,1,24,17.346,12.274,12.274,0,0,1,17.346,24a12.389,12.389,0,0,1-9.7,0A12.274,12.274,0,0,1,.99,17.346a12.389,12.389,0,0,1,0-9.7A12.274,12.274,0,0,1,7.641.99a12.389,12.389,0,0,1,9.7,0A12.274,12.274,0,0,1,24,7.641,12.216,12.216,0,0,1,24.987,12.494Z" fill="#fff"/>
</svg>
