<svg xmlns="http://www.w3.org/2000/svg" width="24.987" height="24.987" viewBox="0 0 24.987 24.987">
  <path id="twitter-square" d="M20.823,7.841a7.242,7.242,0,0,1-1.968.553,3.322,3.322,0,0,0,1.513-1.9,6.778,6.778,0,0,1-2.18.829A3.247,3.247,0,0,0,15.7,6.247a3.416,3.416,0,0,0-3.416,3.416,3.138,3.138,0,0,0,.081.781A9.676,9.676,0,0,1,8.426,9.387,9.666,9.666,0,0,1,5.3,6.865a3.382,3.382,0,0,0-.472,1.724,3.222,3.222,0,0,0,1.48,2.847,4.025,4.025,0,0,1-1.627-.423v.033A3.248,3.248,0,0,0,5.5,13.218a3.413,3.413,0,0,0,2,1.179,3.167,3.167,0,0,1-.829.13,4.565,4.565,0,0,1-.634-.065,3.472,3.472,0,0,0,1.212,1.692,3.245,3.245,0,0,0,1.977.683A6.751,6.751,0,0,1,4.979,18.3a6.592,6.592,0,0,1-.813-.049A9.584,9.584,0,0,0,9.4,19.782,9.955,9.955,0,0,0,12.82,19.2a8.8,8.8,0,0,0,2.733-1.546,10.257,10.257,0,0,0,1.96-2.229,9.833,9.833,0,0,0,1.618-5.376q0-.293-.016-.439A6.637,6.637,0,0,0,20.823,7.84Zm4.165-3.156V20.3A4.692,4.692,0,0,1,20.3,24.987H4.685a4.514,4.514,0,0,1-3.311-1.374A4.509,4.509,0,0,1,0,20.3V4.685A4.514,4.514,0,0,1,1.374,1.374,4.509,4.509,0,0,1,4.685,0H20.3a4.514,4.514,0,0,1,3.311,1.374A4.509,4.509,0,0,1,24.987,4.685Z" fill="#fff"/>
</svg>
