<svg xmlns="http://www.w3.org/2000/svg" width="24.987" height="24.987" viewBox="0 0 24.987 24.987">
  <path id="youtube-square" d="M14.95,19.115V16.56q0-.813-.472-.813a.763.763,0,0,0-.537.26v3.644a.763.763,0,0,0,.537.26q.472,0,.472-.8Zm2.994-1.984h1.074v-.553q0-.829-.537-.829t-.537.829v.553ZM8.655,12.8v1.139h-1.3v6.881H6.15V13.942H4.881V12.8H8.655Zm3.27,2.05v5.971h-1.09v-.651A1.729,1.729,0,0,1,9.6,20.9a.64.64,0,0,1-.683-.455,2.856,2.856,0,0,1-.1-.879V14.852H9.892v4.392a2.5,2.5,0,0,0,.016.423q.016.244.244.244.326,0,.683-.5V14.852h1.09Zm4.1,1.806v2.375a4.243,4.243,0,0,1-.114,1.188.833.833,0,0,1-.862.683,1.474,1.474,0,0,1-1.106-.667v.586h-1.09V12.8h1.09v2.619a1.447,1.447,0,0,1,1.106-.651.833.833,0,0,1,.862.683,4.325,4.325,0,0,1,.114,1.2Zm4.083,2.1V18.9a5.417,5.417,0,0,1-.033.7,1.525,1.525,0,0,1-.244.651,1.468,1.468,0,0,1-1.3.651,1.562,1.562,0,0,1-1.317-.618,2.289,2.289,0,0,1-.341-1.4v-2.1a2.375,2.375,0,0,1,.326-1.4,1.546,1.546,0,0,1,1.3-.618,1.46,1.46,0,0,1,1.269.618,2.379,2.379,0,0,1,.341,1.4v1.236H17.944v1.057q0,.829.553.829a.471.471,0,0,0,.488-.423q0-.016.008-.114T19,19.106v-.35h1.106ZM12.77,5.352V7.89q0,.829-.521.829t-.521-.829V5.352q0-.846.521-.846T12.77,5.352Zm8.671,11.6a20.829,20.829,0,0,0-.309-4.23,2.225,2.225,0,0,0-.7-1.2,2.2,2.2,0,0,0-1.236-.562,66.835,66.835,0,0,0-6.7-.244,66.615,66.615,0,0,0-6.686.244,2.171,2.171,0,0,0-1.245.562,2.247,2.247,0,0,0-.691,1.2,20.346,20.346,0,0,0-.326,4.23,19.925,19.925,0,0,0,.326,4.23,2.284,2.284,0,0,0,.691,1.188,2.134,2.134,0,0,0,1.229.569q2.229.244,6.7.244t6.7-.244a2.134,2.134,0,0,0,1.229-.569,2.284,2.284,0,0,0,.691-1.188,19.925,19.925,0,0,0,.326-4.23ZM9.159,6.361l1.464-4.816H9.4L8.573,4.717,7.711,1.545H6.442q.114.374.374,1.122L7.207,3.79a22.358,22.358,0,0,1,.748,2.57V9.63h1.2Zm4.7,1.317V5.564a2.412,2.412,0,0,0-.341-1.415,1.514,1.514,0,0,0-1.269-.618,1.46,1.46,0,0,0-1.269.618,2.412,2.412,0,0,0-.341,1.415V7.679a2.412,2.412,0,0,0,.341,1.415,1.46,1.46,0,0,0,1.269.618,1.514,1.514,0,0,0,1.269-.618,2.321,2.321,0,0,0,.341-1.415ZM16.8,9.631h1.09V3.611H16.8v4.6q-.358.5-.683.5-.244,0-.26-.26a2.5,2.5,0,0,1-.016-.423V3.611h-1.09V8.378a3.028,3.028,0,0,0,.1.895.685.685,0,0,0,.7.439,1.817,1.817,0,0,0,1.253-.732v.651Zm8.183-4.945V20.3A4.692,4.692,0,0,1,20.3,24.987H4.685a4.514,4.514,0,0,1-3.311-1.374A4.509,4.509,0,0,1,0,20.3V4.685A4.514,4.514,0,0,1,1.374,1.374,4.509,4.509,0,0,1,4.685,0H20.3a4.514,4.514,0,0,1,3.311,1.374,4.509,4.509,0,0,1,1.374,3.311Z" fill="#fff"/>
</svg>
